<svg xmlns="http://www.w3.org/2000/svg" class="card" width="342" height="385" viewBox="0 0 342 385" fill="none">
            <style>
               .title {
                   fill:#eb1f6a;
                   font: 600 18px 'Segoe UI', Ubuntu, Sans-Serif;
                   font-weight:bold;
                }
                .text {
                    fill:#f1f1eb;
                    font: 600 18px 'Segoe UI', Ubuntu, Sans-Serif;
                }
                .section {
                    opacity: 0;
                    animation: fadeInAnimation 0.3s ease-in-out forwards;
                }
                @keyframes fadeInAnimation {
                    from {
                        opacity: 0;
                    }
                    to {
                        opacity: 1;
                    }
                }
            </style>
            <rect x="1" y="1" rx="4.5" width="99%" height="99%" fill="#272822" stroke="#e4e2e2" stroke-opacity="1"/>
            <text class="title section" x="81.5" y="30" style="animation-delay:150ms;">My Awesome Stack</text>
            <g transform="translate(20,20)">
            <g class="section" style="animation-delay:300ms;" transform="translate(0,47)">
                <text class="text" x="0" y="0">My favourite html:</text> 
                <g transform="translate(152.82,-27.5)"><svg xmlns="http://www.w3.org/2000/svg" version="1.1" width="40" height="40" viewBox="0 0 24 24"> <path d="m12 17.56l4.07-1.13.55-6.1h-7.24l-.18-2.03h7.6l.2-1.99h-10l.56 6.01h6.89l-.23 2.58-2.22.6-2.22-.6-.14-1.66h-2l.29 3.19 4.07 1.13m-7.93-14.56h15.86l-1.43 16.2-6.5 1.8-6.5-1.8-1.43-16.2z" fill="#e44d26"/> </svg> </g>
            </g>
            <g class="section" style="animation-delay:450ms;" transform="translate(0,89)">
                <text class="text" x="0" y="0">My favourite css:</text> 
                <g transform="translate(144.33,-27.5)"><svg xmlns="http://www.w3.org/2000/svg" version="1.1" width="40" height="40" viewBox="0 0 24 24"> <path d="m5 3l-.65 3.34h13.59l-.44 2.16h-13.58l-.66 3.33h13.59l-.76 3.81-5.48 1.81-4.75-1.81.33-1.64h-3.34l-.79 4 7.85 3 9.05-3 1.2-6.03.24-1.21 1.54-7.76h-16.94z" fill="#42a5f5"/> </svg> </g><g transform="translate(191.33,-27.5)"><svg xmlns="http://www.w3.org/2000/svg" xmlns:xlink="http://www.w3.org/1999/xlink" aria-hidden="true" role="img" class="iconify iconify--logos" width="40" height="40" preserveAspectRatio="xMidYMid meet" viewBox="0 0 256 293"><path d="M78.67 179.029c-4.65 2.907-11.656 7.619-17.076 12.743c-8.898 8.403-10.76 20.059-6.066 22.782c4.342 2.517 14.479-.478 21.734-8.392c7.614-8.308 10.754-18.84 7.511-30.796c-.381.227-.755.455-1.122.667l.008.017l-.492.278c-1.893 1.13-3.44 2.063-4.497 2.7zm130.671-3.773c-2.634 5.725-2.766 7.566-1.966 8.14c3.822-1.373 10.145-4.682 10.195-13.55c.008-1.328-.285-2.752-.755-4.242c-4.086 3.618-6.441 7.406-7.474 9.652zm41.01-17.306c-10.21-1.19-18.177.242-24.36 2.818c1.145 2.98 2.025 6.083 2.149 9.21c.287 6.863-4.437 11.942-9.36 15.569c-2.875 2.114-5.934 3.523-8.502 4.374c-2.053.865-4.782 1.76-6.719 1.365c-4.27-.868-6.543-4.66-3.638-13.028c1.569-4.528 6.095-11.42 13.401-17.358c-1.665-3.428-3.521-6.92-4.467-10.13c-1.864-6.326-2.427-10.15-2.427-10.15s-6.022 12.486-13.791 23.84c-.448.66-.895 1.306-1.343 1.951c1.526 3.547 2.728 7.297 2.891 11.077c.286 6.863-2.685 12.052-7.615 15.67c-2.669 1.968-5.516 3.327-7.959 4.192c-1.562.681-4.739 1.804-9.257 2.106c-2.471.169-4.848.016-6.175-.99c-1.827-1.38-2.047-3.084-1.101-5.41c.8-1.976 6.785-8.808 11.803-14.79a123.815 123.815 0 0 0 3.887-4.903l-.029-.066s.909-1.173 2.384-3.221c-1.834-3.95-4.159-8.06-5.252-11.788c-1.864-6.327-2.428-10.151-2.428-10.151s-6.104 15.649-12.463 28.14c-4.921 9.675-8.208 15.538-9.689 18.108l-.015.103s-.221.375-.602.962l-.285.476l-.008-.044c-1.651 2.438-5.355 7.214-9.037 7.214c-10.108 0-6.397-20.529-6.397-20.529s-2.955 7.605-6.286 14.13c-2.713 5.32-5.185 9.828-10.591 9.828c-1.555 0-4.02-.044-6.067-1.99c-4.643-4.411-8.193-15.612-7.497-24.287c.594-7.376 1.731-12.486 3.286-16.748a336.981 336.981 0 0 0-9.242 5.219l-5.018 2.957l.162.294c4.151 8.03 5.259 25.623-3.793 39.127c-9.051 13.512-25.9 21.733-42.316 17.168c-5.297-1.475-13.299-12.433-6.397-27.707c6.088-13.47 30.419-26.203 36.831-29.381l1.76-.97c-12.784-11.185-44.708-26.275-49.182-49.454c-1.262-6.525 1.797-22.13 20.956-40.067c16.115-15.084 38.532-26.637 59.24-33.999c34.79-12.366 71.548-5.072 77.203 17.11c5.56 21.814-13.364 47.907-37.6 57.287c-21.639 8.374-39.53 7.046-46.88 4.632c-8.355-2.745-13.255-8.258-14.45-11.37c-.47-1.219-1.278-3.266 0-3.97c.784-.434 1.099-.33 3.197 1.989c1.996 2.202 10.02 8.11 25.263 6.4c40-4.484 64.095-35.584 56.481-52.319c-5.332-11.713-36.162-16.998-74.68 2.21c-47.019 23.442-49.571 42.768-49.974 50.108c-1.101 20.192 24.902 30.813 38.972 45.829l.542.595c2.633-1.453 5.414-2.987 8.142-4.484a8176.293 8176.293 0 0 1 16.901-9.258c4.952-7.197 15-15.14 22.255-15.14c11.597 0 7.614 16.668 7.614 16.668s.235-.762.55-.77c.33-.008 1.607-2.196 5.187-.89c3.682 1.352 2.845 3.936 2.868 4.2c.044.512-4.35 15.331-6.176 24.837c-.874 4.536-.368 7.84-.11 7.84c.359 0 1.093-1.154 1.775-2.393l-.015-.037s.513-.94 1.372-2.627l.169-.353l.007.016a213.875 213.875 0 0 0 4.078-8.507c3.22-7.097 15.506-34.498 16.548-37.528c1.041-3.031 1.584-6.166 2.098-7.51c.506-1.343 4.849-2.356 9.924-2.319c5.076.037 5.591 2.203 5.626 2.65c.037.447-2.413 6.46-2.978 10.709c-.557 4.25-.021 6.37.441 9.938c.301 2.333 1.76 5.292 3.485 8.645c5.252-8.588 14.493-25.013 15.381-29.615c.608-3.148 1.584-6.165 2.098-7.51c.513-1.343 4.849-2.355 9.924-2.319c5.076.038 5.589 2.203 5.626 2.65c.037.448-2.421 6.46-2.978 10.71c-.558 4.242-.021 6.37.44 9.938c.397 3.052 2.758 7.155 5.099 11.822c6.388-3.148 13.907-5.261 22.71-5.305c3.645-.022 7.878.344 10.064 1.026V80.055c0-4.954-2.539-9.52-6.829-11.993L134.616 1.855a13.78 13.78 0 0 0-13.812 0L6.573 68.03C2.289 70.504 0 75.076 0 80.022v132.47c0 4.946 2.303 9.519 6.58 11.992l114.415 66.225a13.645 13.645 0 0 0 13.76 0l114.467-66.226c4.283-2.48 6.778-7.047 6.778-11.992v-53.536c-1.453-.428-3.58-.765-5.649-1.006zm-123.232-6.938c-2.457 2.752-6.645 9.85-8.604 15.79c-3.895 11.793-2.208 23.78.55 24.5c3.22.843 8.502-14.922 11.031-21.088c1.585-3.862 7.747-20.999 6.397-23.288c-1.054-1.791-5.42-.345-9.374 4.087zm44.563 39.752s-.777.736-.441.94c.455.272 1.438-.08 2.509-.639c3.03-1.906 9.829-6.663 9.844-13.702c0-.206-.008-.404-.022-.617a276.359 276.359 0 0 1-4.284 5.475c-2.142 2.665-7.606 8.543-7.606 8.543z" fill="#8CC84B"/></svg>
</g><g transform="translate(238.33,-27.5)"><svg xmlns="http://www.w3.org/2000/svg" enable-background="new 0 0 612 792" version="1.1" width="40" height="40" viewBox="0 0 500 500" xml:space="preserve"><g transform="matrix(1.311 0 0 1.311 -150.32 -269.45)" fill="#ec407a" stroke="#ec407a" width="40"><path d="m434.3 278.93c-9.3-36.49-69.8-48.48-127.06-28.14-34.08 12.11-70.96 31.11-97.49 55.92-31.54 29.5-36.57 55.17-34.49 65.9 7.31 37.85 59.18 62.6 80.5 80.95v.11c-6.29 3.09-52.3 26.38-63.07 50.19-11.36 25.12 1.81 43.14 10.53 45.57 27.02 7.52 54.74-6 69.65-28.23 14.38-21.45 13.18-49.14 6.93-62.92 8.62-2.27 18.67-3.29 31.44-1.8 36.04 4.21 43.11 26.71 41.76 36.13s-8.91 14.6-11.44 16.16-3.3 2.11-3.09 3.27c.31 1.69 1.48 1.63 3.63 1.26 2.97-.5 18.92-7.66 19.61-25.04.87-22.07-20.28-46.76-57.73-46.11-15.42.27-25.12 1.73-32.13 4.34-.52-.59-1.04-1.18-1.59-1.76-23.15-24.7-65.95-42.17-64.14-75.38.66-12.07 4.86-43.86 82.24-82.42 63.39-31.59 114.14-22.89 122.91-3.63 12.53 27.52-27.12 78.67-92.95 86.05-25.08 2.81-38.29-6.91-41.57-10.53-3.46-3.81-3.97-3.98-5.27-3.27-2.1 1.17-.77 4.53 0 6.54 1.97 5.12 10.03 14.19 23.78 18.7 12.1 3.97 41.54 6.15 77.16-7.62 39.88-15.45 71.03-58.37 61.88-94.24zm-169.69 185.94c2.99 11.06 2.66 21.37-.43 30.7-.34 1.04-.72 2.06-1.13 3.08-.41 1.01-.85 2.01-1.33 3-2.38 4.94-5.58 9.56-9.49 13.83-11.94 13.02-28.61 17.95-35.76 13.8-7.72-4.48-3.85-22.84 9.98-37.46 14.89-15.74 36.31-25.86 36.31-25.86l-.03-.06c.62-.34 1.24-.68 1.88-1.03z" fill="#ec407a" stroke="#ec407a" stroke-width="50"/></g></svg> 
</g>
            </g>
            <g class="section" style="animation-delay:600ms;" transform="translate(0,131)">
                <text class="text" x="0" y="0">My favourite javascript:</text> 
                <g transform="translate(203.76,-27.5)"><svg xmlns="http://www.w3.org/2000/svg" version="1.1" viewBox="0 0 24 24" width="40" height="40"> <path d="m3 3h18v18h-18v-18m4.73 15.04c.4.85 1.19 1.55 2.54 1.55 1.5 0 2.53-.8 2.53-2.55v-5.78h-1.7v5.74c0 .86-.35 1.08-.9 1.08-.58 0-.82-.4-1.09-.87l-1.38.83m5.98-.18c.5.98 1.51 1.73 3.09 1.73 1.6 0 2.8-.83 2.8-2.36 0-1.41-.81-2.04-2.25-2.66l-.42-.18c-.73-.31-1.04-.52-1.04-1.02 0-.41.31-.73.81-.73.48 0 .8.21 1.09.73l1.31-.87c-.55-.96-1.33-1.33-2.4-1.33-1.51 0-2.48.96-2.48 2.23 0 1.38.81 2.03 2.03 2.55l.42.18c.78.34 1.24.55 1.24 1.13 0 .48-.45.83-1.15.83-.83 0-1.31-.43-1.67-1.03l-1.38.8z" fill="#ffca28"/> </svg> </g><g transform="translate(250.76,-27.5)"><svg xmlns="http://www.w3.org/2000/svg" width="40" height="40" version="1.1" viewBox="0 0 24 24"><g transform="translate(2e-7 .16004)"><path d="m1.791 3.6914 10.209 17.619 10.209-17.533v-.085938h-3.9688l-6.1816 10.615-6.1523-10.615z" style="fill:#41b883"/><path d="m5.9072 3.6914 6.1521 10.617 6.1809-10.617h-3.7228l-2.4337 4.1783-2.4226-4.1783z" style="fill:#35495e"/></g></svg> </g>
            </g>
            <g class="section" style="animation-delay:750ms;" transform="translate(0,173)">
                <text class="text" x="0" y="0">My favourite seo-addons:</text> 
                <g transform="translate(203.76,-27.5)"><svg xmlns="http://www.w3.org/2000/svg" width="40" height="40" fill="none" version="1.1" viewBox="0 0 300 300"> <g transform="matrix(.66379 0 0 .66379 17.497 51.005)" fill="none"> <path d="m227.92 82.074-13.689 23.704-46.815-81.086-143.71 248.89h97.304c0 13.091 10.613 23.704 23.704 23.704h-121.01c-8.4677 0-16.291-4.5202-20.525-11.854-4.2332-7.3337-4.2327-16.368 0.00114-23.702l143.71-248.89c4.2342-7.3343 12.06-11.853 20.528-11.853 8.4688 0 16.294 4.5182 20.528 11.853z" fill="#00c58e" style="fill:#00bfa5"/> <path d="m331.66 261.73-90.054-155.95-13.689-23.704-13.689 23.704-90.044 155.95c-4.2338 7.3332-4.2343 16.368-1e-3 23.702 4.2331 7.3336 12.057 11.854 20.525 11.854h166.4c8.4695 0 16.296-4.5152 20.532-11.85 4.2356-7.3343 4.2361-16.371 1e-3 -23.706zm-186.95 11.852 83.21-144.1 83.19 144.1h-166.4z" fill="#2f495e" style="fill:#f5f5f5"/> <path d="m396.05 285.43c-4.2334 7.3325-12.057 11.852-20.523 11.852h-64.415c13.091 0 23.704-10.612 23.704-23.704h40.662l-115.38-199.83-18.489 32.03-13.689-23.704 11.654-20.178c4.2342-7.3343 12.06-11.853 20.528-11.853 8.4688 0 16.294 4.5182 20.528 11.853l115.42 199.83c4.2343 7.334 4.2343 16.37 0 23.704z" fill="#108775" style="fill:#26a69a"/> </g> </svg> </g>
            </g>
            <g class="section" style="animation-delay:900ms;" transform="translate(0,215)">
                <text class="text" x="0" y="0">My favourite package-managers:</text> 
                <g transform="translate(270,-27.5)"> <svg xmlns="http://www.w3.org/2000/svg" width="40" height="40" version="1.1" viewBox="0 0 290 290"> <path d="m249.9 217.2c-12.389 2.9424-18.661 5.6525-33.993 15.641-24.004 15.486-50.176 22.688-50.176 22.688s-2.1681 3.2522-8.4401 4.7234c-10.84 2.6327-51.647 4.8782-55.364 4.9556-9.9887 0.0775-16.106-2.5552-17.809-6.6591-5.1879-12.389 7.4335-17.809 7.4335-17.809s-2.7875-1.7035-4.4136-3.2521c-1.4712-1.4712-3.0198-4.4136-3.4844-3.3296-1.9358 4.7233-2.9424 16.261-8.1303 21.449-7.1237 7.2012-20.597 4.8008-28.572 0.61946-8.7498-4.6459 0.61946-15.564 0.61946-15.564s-4.7233 2.7876-8.5175-2.9424c-3.407-5.2654-6.5817-14.247-5.73-25.32 1.084-12.776 15.177-25.01 15.177-25.01s-2.4778-18.661 5.6525-37.787c7.356-17.422 27.179-31.437 27.179-31.437s-16.648-18.351-10.453-34.999c4.0265-10.84 5.6525-10.763 6.9689-11.228 4.6459-1.7809 9.137-3.7167 12.467-7.356 16.648-17.964 37.864-14.557 37.864-14.557s9.9113-30.431 19.203-24.468c2.865 1.8584 13.163 24.778 13.163 24.778s10.995-6.4268 12.234-4.0265c6.6591 12.931 7.4334 37.632 4.491 52.654-4.9556 24.778-17.345 38.097-22.3 46.459-1.1615 1.9358 13.318 8.0529 22.455 33.373 8.4401 23.152 0.92917 42.588 2.2455 44.756 0.2323 0.38716 0.30972 0.54204 0.30972 0.54204s9.679 0.77431 29.114-11.228c10.376-6.4268 22.688-13.628 36.703-13.783 13.551-0.23229 14.247 15.719 4.1039 18.119z" fill="#0288d1" stroke-width="50"/> </svg> </g>
            </g>
            <g class="section" style="animation-delay:1050ms;" transform="translate(0,257)">
                <text class="text" x="0" y="0">My favourite platforms:</text> 
                <g transform="translate(195.27,-27.5)"><svg xmlns="http://www.w3.org/2000/svg" width="40" height="40" version="1.1" viewBox="0 0 40 40"><path d="m27.84 14.658-.01276-.0054c-.0072-.0028-.01457-.0054-.02095-.01184a.10019.10019 0 0 1-.02549-.08471l.70406-4.3045 3.3017 3.3026-3.4338 1.4609a.075597.075597 0 0 1-.03006.0054h-.01365c-.0045-.0028-.0092-.0063-.01821-.01549a1.563 1.563 0 0 0-.45086-.34701zm4.7891-.26231 3.5303 3.5303c.7332.73412 1.1003 1.1003 1.2342 1.5247.02004.06285.03644.12569.04919.19036l-8.4369-3.5731a.66307.66307 0 0 0-.01365-.0054c-.0337-.01365-.07287-.02914-.07287-.06376 0-.03461.04009-.05101.07378-.06466l.01093-.0045zm4.6697 6.3784c-.18216.34247-.53738.69768-1.1385 1.2997l-3.9803 3.9793-5.1479-1.072-.02733-.0054c-.04554-.0072-.0938-.01549-.0938-.05647a1.5538 1.5538 0 0 0-.59659-1.0867c-.02094-.02094-.01549-.05374-.0092-.08379 0-.0045 0-.0092.0018-.01276l.96819-5.944.0037-.02004c.0054-.04554.01365-.09837.05466-.09837a1.5757 1.5757 0 0 0 1.0565-.60569c.0083-.0092.01365-.01913.0246-.0246.02914-.01365.06376 0 .0938.01276l8.7893 3.7179zm-6.0341 6.1944-6.5451 6.5451 1.1203-6.8857.0018-.0092c.00091-.0092.0028-.01821.0054-.02641.0092-.02186.03279-.03097.05555-.04007l.01093-.0045a1.685 1.685 0 0 0 .63302-.47089c.02186-.02549.04827-.05009.08198-.05466a.081973.081973 0 0 1 .02641 0l4.6087.94725zm-7.9304 7.9304-.73776.73776-8.1563-11.788a.38618.38618 0 0 0-.0092-.01276c-.01276-.0173-.02641-.03461-.02368-.05466.000911-.01457.01007-.02733.02004-.03825l.0092-.01184c.0246-.03643.04554-.07287.06831-.11203l.01821-.03188.0028-.0028c.01276-.02186.0246-.04281.04645-.05466.01913-.0092.04554-.0054.0665-.000911l9.0362 1.8635a.14937.14937 0 0 1 .06923.03006c.01184.01184.01457.0246.0173.03917a1.6003 1.6003 0 0 0 .93632 1.0702c.02549.01276.01457.04098.0028.07104a.21677.21677 0 0 0-.01365.04098c-.11385.69222-1.0902 6.6471-1.3526 8.2547zm-1.5411 1.5402c-.54376.53829-.86436.82338-1.2269.93814a1.8216 1.8216 0 0 1-1.0984 0c-.42444-.1348-.7915-.50095-1.5247-1.2351l-8.1909-8.1909 2.1395-3.3181c.01007-.01639.02004-.03097.03643-.04281.02277-.01639.05555-.0092.08288 0a2.2169 2.2169 0 0 0 1.4919-.0756c.0246-.0092.04918-.01549.06831.0018a.17305.17305 0 0 1 .0255.02914l8.1964 11.894zm-12.831-9.2775-1.879-1.879 3.7107-1.583a.076508.076508 0 0 1 .03006-.0063c.03097 0 .04919.03097.06558.0592a2.6505 2.6505 0 0 0 .11841.16759l.01184.01457c.01093.01549.0037.03097-.0072.04554l-2.0493 3.1815zm-2.7106-2.7106-2.3772-2.3772c-.4044-.4044-.69768-.69768-.9017-.94998l7.2282 1.4992a.76508.76508 0 0 0 .02733.0045c.04463.0072.0938.01549.0938.05738 0 .04554-.05374.0665-.09928.0838l-.02094.0092zm-3.6943-4.5495a1.8216 1.8216 0 0 1 .081973-.45085c.1348-.42444.50095-.79058 1.2351-1.5247l3.0421-3.0421a1981.5 1981.5 0 0 0 4.2134 6.0906c.0246.03279.05192.06922.02368.09655-.13298.14664-.26596.30694-.35977.48091a.14573.14573 0 0 1-.04554.05647c-.01184.0072-.0246.0045-.03825.0018h-.0018l-8.1509-1.7096zm5.1734-5.8319 4.0905-4.0905c.38436.1685 1.7834.75962 3.0348 1.2879.94725.40076 1.8107.76508 2.0821.88349.02733.01092.05192.02186.06376.04919.0072.01639.0037.03734 0 .05466a1.8244 1.8244 0 0 0 .47636 1.665c.02733.02733 0 .0665-.02368.10019l-.01276.01913-4.1533 6.4331c-.01093.01821-.02095.0337-.03917.04554-.02186.01365-.05282.0073-.07833.00091a2.0712 2.0712 0 0 0-.49457-.06739c-.14937 0-.3115.02733-.47544.05738h-.000912c-.01821.0028-.03461.0063-.04918-.0045a.19127.19127 0 0 1-.04098-.04645zm4.9166-4.9166 5.2955-5.2955c.7332-.7332 1.1003-1.1003 1.5247-1.2342a1.8216 1.8216 0 0 1 1.0984 0c.42444.13389.7915.50095 1.5247 1.2342l1.1476 1.1476-3.7662 5.8328a.14118.14118 0 0 1-.03734.04371c-.02277.01549-.05466.0092-.08198 0a1.91 1.91 0 0 0-1.7488.337c-.0246.0255-.06102.01092-.09199-.0027-.49184-.21404-4.3173-1.8307-4.8646-2.063zm11.391-3.3481 3.4775 3.4775-.83795 5.1898v.01365a.12296.12296 0 0 1-.0072.03461c-.0092.01821-.02733.02186-.04554.02733a1.6668 1.6668 0 0 0-.49912.24865.14027.14027 0 0 0-.01822.01549c-.01007.01093-.02004.02094-.03643.02277a.10383.10383 0 0 1-.03917-.0063l-5.2991-2.2515-.01007-.0045c-.0337-.01365-.07378-.03006-.07378-.06466a2.002 2.002 0 0 0-.28235-.83339c-.02549-.0419-.05374-.08562-.03188-.12843zm-3.5813 7.8385 4.9676 2.104c.02733.01276.05738.0246.06922.05282a.096546.096546 0 0 1 0 .05192c-.01457.07287-.02733.15575-.02733.23954v.13935c0 .03461-.03552.04919-.06831.06285l-.01007.0037c-.78694.33609-11.048 4.7116-11.064 4.7116-.01549 0-.03188 0-.04736-.01549-.02733-.02733 0-.06558.0246-.10019a.69222.69222 0 0 0 .01276-.01822l4.0823-6.321.0073-.01093c.02368-.03825.05101-.08107.09472-.08107l.04098.0063c.09291.01276.17488.0246.25776.0246.61935 0 1.1932-.30148 1.5393-.817a.14573.14573 0 0 1 .03097-.03643c.02459-.01821.06103-.0092.08926.0037zm-5.6889 8.3658 11.185-4.7699s.0164 0 .03188.01549c.06103.06103.11294.10201.16304.14026l.0246.01549c.02277.01276.04554.02733.04736.05101 0 .0092 0 .01457-.0018.02277l-.95818 5.8857-.0037.02368c-.0063.04554-.01276.09745-.05555.09745a1.5748 1.5748 0 0 0-1.2505.77146l-.0045.0072c-.01276.02095-.0246.04098-.04554.05193-.01913.0092-.04371.0054-.06376.000909l-8.9196-1.8398c-.0092-.0018-.13844-.47271-.14846-.47362z" style="fill:#00bfa5;stroke-width:.91081"/></svg> </g>
            </g>
            <g class="section" style="animation-delay:1200ms;" transform="translate(0,299)">
                <text class="text" x="0" y="0">My favourite bundlers:</text> 
                <g transform="translate(186.78,-27.5)"><svg xmlns="http://www.w3.org/2000/svg" width="40" height="40" version="1.1" viewBox="0 0 24 24"> <path d="m19.376 15.988-7.7084 4.4505-7.7084-4.4505v-8.9009l7.7084-4.4505 7.7084 4.4505z" fill="#fff" fill-opacity=".78498"/> <path d="m12.286 1.9792c-0.21 0-0.41031 0.059687-0.57031 0.17969l-7.9004 4.4395c-0.32 0.17-0.5293 0.50086-0.5293 0.88086v9c0 0.38 0.2093 0.71086 0.5293 0.88086l7.9004 4.4395c0.16 0.12 0.36031 0.17969 0.57031 0.17969s0.41031-0.05969 0.57031-0.17969l7.9004-4.4395c0.32-0.17 0.5293-0.50086 0.5293-0.88086v-9c0-0.38-0.2093-0.71086-0.5293-0.88086l-7.9004-4.4395c-0.16-0.12-0.36031-0.17969-0.57031-0.17969zm0 2.1504 7 3.9395v2.1035h-0.01563v5.1777h0.01563v0.53906l-7 3.9395-7-3.9395v-7.8203l7-3.9395zm0 2.0801l-4.9004 2.8301 4.9004 2.8301 4.9004-2.8301-4.9004-2.8301zm-5 5.0801v3.5801l4 2.3086v-3.5801l-4-2.3086zm10 0-4 2.3086v3.5801l4-2.3086v-3.5801z" fill="#8ed6fb"/> <path d="m12.286 6.2097-4.9004 2.8301 4.9004 2.8301 4.9004-2.8301-4.9004-2.8301zm-5 5.0801v3.5801l4 2.3086v-3.5801l-4-2.3086zm10 0-4 2.3086v3.5801l4-2.3086v-3.5801z" fill="#1c78c0"/> </svg> </g>
            </g>
            <g class="section" style="animation-delay:1350ms;" transform="translate(0,341)">
                <text class="text" x="0" y="0">My favourite tools:</text> 
                <g transform="translate(161.31,-27.5)"> <svg xmlns="http://www.w3.org/2000/svg" xmlns:cc="http://creativecommons.org/ns#" xmlns:dc="http://purl.org/dc/elements/1.1/" xmlns:rdf="http://www.w3.org/1999/02/22-rdf-syntax-ns#" width="40" height="40" version="1.1" viewBox="0 0 299.99999 300.00001" xml:space="preserve"><metadata><rdf:RDF><cc:Work rdf:about=""><dc:format>image/svg+xml</dc:format><dc:type rdf:resource="http://purl.org/dc/dcmitype/StillImage"/><dc:title/></cc:Work></rdf:RDF></metadata><g transform="matrix(1.0344 0 0 1.0344 -2.8803 18.438)"><path d="m97.021 99.016 48.432-27.962c1.212-0.7 2.706-0.7 3.918 0l48.433 27.962c1.211 0.7 1.959 1.993 1.959 3.393v55.924c0 1.399-0.748 2.693-1.959 3.394l-48.433 27.962c-1.212 0.7-2.706 0.7-3.918 0l-48.432-27.962c-1.212-0.7-1.959-1.994-1.959-3.394v-55.924c1e-3 -1.4 0.748-2.693 1.959-3.393" fill="#7986cb"/><path d="m273.34 124.49-57.867-100.67c-2.102-3.64-5.985-6.325-10.188-6.325h-115.74c-4.204 0-8.088 2.685-10.19 6.325l-57.867 100.45c-2.102 3.641-2.102 8.236 0 11.877l57.867 99.847c2.102 3.64 5.986 5.501 10.19 5.501h115.74c4.203 0 8.087-1.805 10.188-5.446l57.867-100.01c2.104-3.639 2.104-7.907 1e-3 -11.547m-47.917 48.41c0 1.48-0.891 2.849-2.174 3.59l-73.71 42.527c-1.282 0.74-2.888 0.74-4.17 0l-73.767-42.527c-1.282-0.741-2.179-2.109-2.179-3.59v-85.055c0-1.481 0.884-2.849 2.167-3.59l73.707-42.527c1.282-0.741 2.886-0.741 4.168 0l73.772 42.527c1.283 0.741 2.186 2.109 2.186 3.59z" fill="#3f51b5"/></g></svg> </g><g transform="translate(208.31,-27.5)"><svg xmlns="http://www.w3.org/2000/svg" width="40" height="40" version="1.1" viewBox="0 0 24 24"><path d="m18.23 11.21c-.03-.16-.47-.71-1.32-1.65-.02-.19.29-.45.9-.8l1.74-1.55c.39-.5.62-1.28.69-2.38l-.02-.26c-.07-.78-.63-1.4-1.69-1.89-.63-.42-1.76-.65-3.38-.68-1.35.11-3.11.59-5.28 1.43-.6.43-1.28.86-2.04 1.28l.01.14.21-.08c.08-.01.13.03.14.11l.13-.07.07-.01.01.06c0 .07-.47.44-1.76 1.35l-.06.12c-.31.02-.61.25-.91.67l.08.12.25-.09.18.24c.32-.33.66-.62 1.03-.87.19.05.29.11.44.16 1.02-.75 2.03-1.3 3.04-1.64l.01.14c-.2.27-.32.42-.38.42l.1.23c.01.19-2.55 7-6.66 14.44l.08.19c.35-.08.58-.17.75-.26l.01.13.4-.03-.67 1.76.14.06c.57-.64 1-1.29 1.3-1.88 1.67-.49 2.94-.97 3.82-1.44.88-.08 1.56-.31 2.02-.7l.92-.47c1.27-.98 2.22-1.67 2.87-2.08 1.33-.98 2.2-1.93 2.6-2.85l.23-1.37m-3.46 2.31-1.77 1.39c-1.29.85-2 1.3-2.09 1.3-2.07 1.13-3.36 1.72-3.86 1.76l-.05.01c.04-.23.96-2.12 2.75-5.67.78-.06 2.02-.43 3.71-1.1l.41-.03c.85-.08 1.49.09 1.91.49l.03.26c-.31.9-.67 1.44-1.04 1.59m1.09-5.78c-.18.22-.68.59-1.5 1.11-.27.03-1.27.42-3.01 1.18l-.28-.05-.01-.12c-.02-.25.09-.57.34-.95.13-.7.28-1.12.44-1.2l1.45-3.28c-.02-.22.29-.35.93-.46l.21-.02.01.18 1.16-.16c1.15-.1 1.75.14 1.8.7l.13-.02-.03-.32.15-.02c.35.19.52.4.54.68.02.18-.08.41-.29.68-.09.01-.14-.06-.15-.18l-.14.01-.03.4c-.58.87-1.01 1.31-1.27 1.34z" style="fill:#fdd835"/></svg> </g>
            </g></g> 
        </svg>